<svg viewBox="0 0 108 32" fill="none" xmlns="http://www.w3.org/2000/svg">
<path d="M5.10586 13.4471C5.10586 8.06883 5.10586 5.37971 6.3966 3.44798C6.95537 2.61172 7.67339 1.8937 8.50966 1.33493C10.4414 0.0441895 13.1305 0.0441895 18.5087 0.0441895C23.887 0.0441895 26.5761 0.0441895 28.5078 1.33493C29.3441 1.8937 30.0621 2.61172 30.6209 3.44798C31.9116 5.37971 31.9116 8.06883 31.9116 13.4471C31.9116 18.8253 31.9116 21.5144 30.6209 23.4462C30.0621 24.2824 29.3441 25.0004 28.5078 25.5592C26.5761 26.85 23.887 26.85 18.5087 26.85C13.1305 26.85 10.4414 26.85 8.50966 25.5592C7.67339 25.0004 6.95537 24.2824 6.3966 23.4462C5.10586 21.5144 5.10586 18.8253 5.10586 13.4471Z" fill="#553B33"/>
<path d="M0 15.3618C0 10.5479 0 8.14099 1.49547 6.64552C2.99094 5.15005 5.39787 5.15005 10.2117 5.15005H16.594C21.4079 5.15005 23.8148 5.15005 25.3103 6.64552C26.8058 8.14099 26.8058 10.5479 26.8058 15.3618V21.7441C26.8058 26.558 26.8058 28.9649 25.3103 30.4603C23.8148 31.9558 21.4079 31.9558 16.594 31.9558H10.2117C5.39787 31.9558 2.99094 31.9558 1.49547 30.4603C0 28.9649 0 26.558 0 21.7441V15.3618Z" fill="#2F241F"/>
<path d="M46.1265 23.3395H40.8611V8.48608H46.17C47.6641 8.48608 48.9502 8.78344 50.0284 9.37816C51.1067 9.96804 51.9359 10.8166 52.5161 11.9238C53.1011 13.0311 53.3937 14.3559 53.3937 15.8983C53.3937 17.4455 53.1011 18.7752 52.5161 19.8872C51.9359 20.9993 51.1018 21.8527 50.0139 22.4474C48.9309 23.0421 47.6351 23.3395 46.1265 23.3395ZM44.0015 20.6488H45.996C46.9243 20.6488 47.7052 20.4844 48.3386 20.1556C48.9768 19.822 49.4555 19.307 49.7746 18.6108C50.0985 17.9097 50.2605 17.0055 50.2605 15.8983C50.2605 14.8007 50.0985 13.9038 49.7746 13.2076C49.4555 12.5113 48.9792 11.9988 48.3458 11.67C47.7124 11.3412 46.9315 11.1768 46.0032 11.1768H44.0015V20.6488Z" fill="#2F241F"/>
<path d="M59.9218 23.5571C58.7759 23.5571 57.7896 23.325 56.9628 22.8608C56.1408 22.3918 55.5074 21.7294 55.0626 20.8736C54.6177 20.013 54.3953 18.9952 54.3953 17.8202C54.3953 16.6743 54.6177 15.6686 55.0626 14.8031C55.5074 13.9377 56.1335 13.2632 56.941 12.7796C57.7533 12.2961 58.7058 12.0544 59.7985 12.0544C60.5335 12.0544 61.2176 12.1728 61.851 12.4098C62.4893 12.6418 63.0453 12.9924 63.5191 13.4614C63.9978 13.9304 64.3701 14.5203 64.6361 15.231C64.902 15.937 65.0349 16.7638 65.0349 17.7114V18.56H55.6283V16.6453H62.1266C62.1266 16.2005 62.0299 15.8064 61.8365 15.4631C61.6431 15.1198 61.3748 14.8515 61.0315 14.6581C60.693 14.4598 60.299 14.3607 59.8493 14.3607C59.3803 14.3607 58.9645 14.4695 58.6018 14.6871C58.2441 14.8998 57.9636 15.1875 57.7605 15.5502C57.5575 15.908 57.4535 16.3069 57.4487 16.7468V18.5673C57.4487 19.1185 57.5502 19.5947 57.7533 19.996C57.9612 20.3973 58.2537 20.7068 58.6309 20.9244C59.008 21.1419 59.4552 21.2507 59.9726 21.2507C60.3159 21.2507 60.6302 21.2024 60.9154 21.1057C61.2007 21.009 61.4449 20.8639 61.648 20.6705C61.851 20.4771 62.0058 20.2402 62.1121 19.9598L64.9697 20.1483C64.8246 20.8349 64.5273 21.4345 64.0776 21.947C63.6328 22.4547 63.0574 22.8512 62.3515 23.1364C61.6504 23.4169 60.8405 23.5571 59.9218 23.5571Z" fill="#2F241F"/>
<path d="M69.0338 20.1338L69.041 16.4277H69.4907L73.059 12.1994H76.6055L71.8115 17.7985H71.079L69.0338 20.1338ZM66.2342 23.3395V8.48608H69.3239V23.3395H66.2342ZM73.1968 23.3395L69.9186 18.4875L71.9783 16.3044L76.8158 23.3395H73.1968Z" fill="#2F241F"/>
<path d="M81.879 23.5571C80.7524 23.5571 79.7781 23.3177 78.9562 22.8391C78.139 22.3556 77.5081 21.6835 77.0632 20.8228C76.6184 19.9573 76.396 18.9541 76.396 17.813C76.396 16.6622 76.6184 15.6565 77.0632 14.7959C77.5081 13.9304 78.139 13.2583 78.9562 12.7796C79.7781 12.2961 80.7524 12.0544 81.879 12.0544C83.0056 12.0544 83.9774 12.2961 84.7946 12.7796C85.6165 13.2583 86.2499 13.9304 86.6947 14.7959C87.1396 15.6565 87.362 16.6622 87.362 17.813C87.362 18.9541 87.1396 19.9573 86.6947 20.8228C86.2499 21.6835 85.6165 22.3556 84.7946 22.8391C83.9774 23.3177 83.0056 23.5571 81.879 23.5571ZM81.8935 21.1637C82.406 21.1637 82.8339 21.0187 83.1772 20.7285C83.5205 20.4336 83.7792 20.0323 83.9532 19.5246C84.1321 19.0169 84.2216 18.4391 84.2216 17.7912C84.2216 17.1433 84.1321 16.5655 83.9532 16.0578C83.7792 15.5502 83.5205 15.1488 83.1772 14.8539C82.8339 14.559 82.406 14.4115 81.8935 14.4115C81.3761 14.4115 80.941 14.559 80.588 14.8539C80.2399 15.1488 79.9764 15.5502 79.7975 16.0578C79.6234 16.5655 79.5364 17.1433 79.5364 17.7912C79.5364 18.4391 79.6234 19.0169 79.7975 19.5246C79.9764 20.0323 80.2399 20.4336 80.588 20.7285C80.941 21.0187 81.3761 21.1637 81.8935 21.1637Z" fill="#2F241F"/>
<path d="M93.5874 23.5571C92.4608 23.5571 91.4865 23.3177 90.6646 22.8391C89.8474 22.3556 89.2164 21.6835 88.7716 20.8228C88.3268 19.9573 88.1044 18.9541 88.1044 17.813C88.1044 16.6622 88.3268 15.6565 88.7716 14.7959C89.2164 13.9304 89.8474 13.2583 90.6646 12.7796C91.4865 12.2961 92.4608 12.0544 93.5874 12.0544C94.714 12.0544 95.6858 12.2961 96.5029 12.7796C97.3249 13.2583 97.9583 13.9304 98.4031 14.7959C98.848 15.6565 99.0704 16.6622 99.0704 17.813C99.0704 18.9541 98.848 19.9573 98.4031 20.8228C97.9583 21.6835 97.3249 22.3556 96.5029 22.8391C95.6858 23.3177 94.714 23.5571 93.5874 23.5571ZM93.6019 21.1637C94.1144 21.1637 94.5423 21.0187 94.8856 20.7285C95.2289 20.4336 95.4876 20.0323 95.6616 19.5246C95.8405 19.0169 95.93 18.4391 95.93 17.7912C95.93 17.1433 95.8405 16.5655 95.6616 16.0578C95.4876 15.5502 95.2289 15.1488 94.8856 14.8539C94.5423 14.559 94.1144 14.4115 93.6019 14.4115C93.0845 14.4115 92.6494 14.559 92.2964 14.8539C91.9483 15.1488 91.6848 15.5502 91.5059 16.0578C91.3318 16.5655 91.2448 17.1433 91.2448 17.7912C91.2448 18.4391 91.3318 19.0169 91.5059 19.5246C91.6848 20.0323 91.9483 20.4336 92.2964 20.7285C92.6494 21.0187 93.0845 21.1637 93.6019 21.1637Z" fill="#2F241F"/>
<path d="M100.262 23.3395V12.1994H103.258V14.1431H103.374C103.577 13.4517 103.918 12.9295 104.396 12.5766C104.875 12.2188 105.426 12.0399 106.05 12.0399C106.205 12.0399 106.372 12.0495 106.55 12.0689C106.729 12.0882 106.886 12.1148 107.022 12.1487V14.8902C106.877 14.8467 106.676 14.808 106.42 14.7741C106.164 14.7403 105.929 14.7234 105.716 14.7234C105.262 14.7234 104.856 14.8225 104.498 15.0207C104.145 15.2141 103.865 15.4849 103.657 15.833C103.454 16.1811 103.352 16.5825 103.352 17.037V23.3395H100.262Z" fill="#2F241F"/>
</svg>
